<svg width="229" height="33" viewBox="0 0 229 33" fill="none" xmlns="http://www.w3.org/2000/svg">
<path d="M10.6965 0.0210523L10.8018 0.127466H10.9066L11.5791 0.0210523H12.2308L12.5458 0.233408L12.6719 0.127466V0.0210523C14.3392 0.0210523 16.0485 0.827987 17.7996 2.44191L18.346 2.99403C18.346 3.17793 18.5281 3.43992 18.8924 3.77998L19.9852 7.30514H20.09V7.9632L19.9852 8.62132L20.1953 9.49221C19.9711 9.49221 19.859 9.56998 19.859 9.72557C20.0832 9.72557 20.1953 9.83184 20.1953 10.0443C20.0832 12.3235 19.831 13.4631 19.4387 13.4631L19.5441 13.9093C18.9553 14.9426 18.3387 15.8273 17.6943 16.5635C16.1113 18.1774 14.3251 18.9844 12.3357 18.9844H11.0327L9.1626 18.8784V19.6429C9.1626 19.7845 9.05743 19.8553 8.84714 19.8553L9.1626 20.7472L8.95245 21.4052L9.1626 21.6176L9.05729 23.168L9.1626 24.6121L8.95245 25.0368L9.1626 25.2702V25.7163L8.95245 26.0346L9.1626 26.2685V27.5846L9.05729 27.6911L9.1626 27.7974V28.1158H8.95245C9.28869 29.4465 9.94007 30.1119 10.9066 30.1119L11.0327 30.2183L11.7892 30.1119H12.1255L12.3357 30.3243C10.8786 32.0231 9.82093 32.8725 9.1626 32.8725C7.78961 32.8725 7.10311 32.6107 7.10311 32.0871L6.97702 32.193H6.76687L5.90503 31.9806C5.34463 32.5752 4.68615 32.8725 3.9296 32.8725C2.73889 32.8725 1.64611 32.3558 0.651254 31.3222L0 30.2183L0.104867 30.1119H0.546387C2.14353 30.1119 2.94211 29.8146 2.94211 29.22C3.16627 28.4272 3.27835 27.6627 3.27835 26.9265L3.04698 26.2685V25.5885L3.27835 24.4847L3.04698 24.2723V23.5078L3.17307 22.8493L3.04698 22.7219V22.6159L3.38322 21.9574C3.15905 21.9574 3.04698 21.8866 3.04698 21.745L3.17307 21.1929L3.04698 20.4074L3.27835 18.9844C3.16627 18.9844 3.0191 18.503 2.83683 17.5404C2.27643 16.8185 1.91218 16.4504 1.74405 16.4361L1.42904 16.0113L2.83683 14.249L3.04698 13.8028V12.805L3.17307 11.276L3.04698 10.9362L3.17307 10.1718L3.04698 8.40938L3.17307 7.9632L3.04698 7.07131L3.17307 6.75301C3.17307 4.92659 2.77386 3.8931 1.97543 3.65257L1.30295 3.77998L1.0928 3.54621L0.104867 3.77998V3.54621C1.61795 1.79072 3.29222 0.912946 5.12768 0.912946C5.37987 0.912946 5.70903 1.20312 6.11518 1.78342L6.22046 1.88978H6.32533C7.16593 1.08297 7.97158 0.608806 8.74227 0.467235L9.05729 0.573177C9.05729 0.276019 9.60369 0.0919811 10.6965 0.0210523ZM9.70898 0.785532H8.95245V0.912946H9.70898V0.785532ZM12.7772 1.44365H12.4409V1.57148C12.6651 1.57148 12.7772 1.64213 12.7772 1.78342H12.882V1.57148L12.7772 1.44365ZM13.5333 1.67743L13.0922 1.57148C13.0922 1.71277 13.2043 1.78342 13.4284 1.78342H13.5333V1.67743ZM14.0797 1.57148H13.6386L13.7647 1.88978H14.185L14.0797 1.57148ZM14.5212 1.88978H14.4164L14.6261 2.12361H14.7314L14.5212 1.88978ZM11.453 3.54621L11.138 3.77998L10.5916 3.65257L9.05729 5.09617L9.1626 5.64876V6.51918L8.95245 6.75301L9.05729 7.07131L8.95245 9.0675L9.1626 11.276L9.05729 11.7007L9.1626 12.5926V12.911C9.1626 13.0385 8.79832 13.2652 8.0698 13.5909V13.6969H8.19588L9.05729 13.3571V13.4631L8.95245 13.9093C8.95245 14.4189 9.60383 14.6737 10.9066 14.6737L11.2429 14.8012L11.3481 14.6737C12.735 14.2347 13.4284 13.6897 13.4284 13.0388C13.5966 12.9822 13.7437 12.0618 13.87 10.2777L13.7647 9.61963V8.62132L13.87 7.62343L13.7647 7.1773L13.87 6.75301C13.4777 4.77101 12.7492 3.77998 11.6844 3.77998L11.453 3.54621ZM19.4387 6.96495L18.9976 7.1773V7.41108L19.4387 7.1773V6.96495ZM17.2532 8.51533L17.0222 8.94009L17.4633 8.83368L18.0097 8.94009L17.7996 8.62132V8.51533L18.346 7.85726V7.72943C17.9257 8.25339 17.5614 8.51533 17.2532 8.51533ZM18.7663 8.94009H18.661V9.0675L19.4387 9.27986V9.0675L18.7663 8.94009ZM14.4164 10.4905H14.185L14.0797 10.5965V10.8298H14.185L14.4164 10.5965V10.4905ZM4.5813 15.2259L4.26587 15.3533V15.4592H4.5813L4.68616 15.3533V15.2259H4.5813ZM2.94211 16.3301L2.73196 16.1178L2.39572 16.5635H2.62668C2.62668 16.4079 2.73182 16.3301 2.94211 16.3301ZM7.75436 24.4847H7.85923L8.40562 24.1659V23.9535C8.11155 24.0528 7.89447 24.2298 7.75436 24.4847ZM7.10311 25.2702L6.76687 25.3766V25.4825H6.97702L7.10311 25.3766V25.2702ZM6.66156 25.7163L6.22046 26.0346V26.1406L6.66156 25.9287V25.7163ZM5.46392 26.7991L4.91754 27.3512H5.0224L5.35864 27.0329H5.46392V26.7991ZM4.81225 27.3512L4.37115 27.7974H4.47602L4.81225 27.4787V27.3512ZM6.87174 27.7974L6.43063 27.6911V27.9034H6.87174V27.7974ZM23.8519 0.0845233C24.5943 0.26871 25.2668 0.665284 25.8694 1.27419C26.4858 0.552027 27.0182 0.190937 27.4665 0.190937H27.5714C28.4542 0.403437 29.1266 0.835311 29.5888 1.48654L29.3787 1.69848H29.5888L29.9043 1.59248L31.0811 2.97261V3.07897L30.2193 2.86662H29.5888C29.2667 2.86662 28.9796 3.58163 28.7274 5.01164L28.8535 5.11764L28.6226 6.83795L28.7274 7.81437L28.5173 9.32233L28.7274 9.53469L28.6226 10.0653L28.7274 10.7024V10.8088H28.412L28.6226 11.1276L28.5173 11.7857C28.5173 12.9322 29.1898 14.0365 30.5347 15.0985C30.0442 15.8063 29.694 16.2027 29.484 16.2876L29.3787 16.1812C29.3787 16.5353 29.2386 16.7124 28.9584 16.7124L29.0637 16.8183V16.9247L28.5173 18.1139L28.7274 18.4323V18.6446L28.6226 19.0693L28.7274 19.494V19.9402L28.412 20.2585C28.4961 20.8957 28.6012 21.2143 28.7274 21.2143L28.6226 21.8724L28.7274 24.0174L28.5173 24.3358L28.7274 25.2916V25.5036L28.6226 25.6099C29.1128 27.8327 29.8972 28.9441 30.9758 28.9441H31.8164C33.3575 28.9441 34.2822 27.9813 34.5904 26.0557L34.4643 25.0793V24.4422L34.6957 24.1234L34.4643 23.9111V23.6987L34.6957 23.359L34.5904 23.0406L34.6957 22.9342L34.4643 22.7219L34.6957 20.6832L34.5904 19.3881H34.6957L34.4643 18.0075L34.5904 17.9015V17.7952C34.5904 17.498 34.3733 16.9955 33.9392 16.2876V16.0753L33.8339 16.1812H33.729C33.729 15.8981 33.5889 15.7565 33.3087 15.7565L32.7831 15.0985C33.9039 13.81 34.4643 13.0596 34.4643 12.8474L34.5904 12.3168L34.4643 11.998L34.5904 11.8916H34.6957L34.4643 11.3609H34.5904L34.4643 11.2335L34.5904 10.1718L34.4643 9.0885L34.6957 7.49602L34.4643 7.28366L34.5904 7.15625L34.4643 6.62518V6.51918L34.5904 6.41324L34.4643 6.30683V5.11764L34.6957 4.90528L34.5904 4.37458V3.63115L33.8339 2.76067H33.0986C32.8603 2.76067 32.6081 2.86676 32.342 3.07897H32.2367V2.97261C32.8113 1.88265 33.5959 1.09699 34.5904 0.615648L34.9059 0.72159L35.2209 0.403292H35.431C35.7814 0.403292 36.2438 0.693598 36.818 1.27419C37.2383 0.83517 37.6937 0.615648 38.1842 0.615648H38.4152C40.1804 1.28089 41.0631 1.9959 41.0631 2.76067L41.2732 2.97261V3.07897H41.1684L39.6761 2.76067C39.1859 2.93056 38.9408 3.3976 38.9408 4.1618L39.0456 4.58693L38.8355 5.24505L39.0456 5.88212V9.42827L38.9408 10.0653L39.0456 10.7024L38.9408 11.3609L39.0456 12.104L38.9408 12.4227C38.9408 12.7768 39.5432 13.5979 40.7481 14.8861V15.2044C39.9213 15.9832 39.2838 16.7761 38.8355 17.5832L38.9408 17.6892H39.0456L38.8355 18.9633L39.0456 19.494L38.9408 20.0462L39.0456 21.2143V21.4267L38.8355 22.0848L39.0456 22.6159L38.9408 23.9111L39.0456 24.2294L38.8355 24.4422L39.0456 24.6546V24.7605C39.0456 25.2845 38.9406 25.5676 38.7306 25.6099L38.4152 25.5036C38.4152 25.6594 38.5553 25.7373 38.8355 25.7373L38.9408 25.8437V25.9497C38.9408 26.8134 38.4784 28.0593 37.5538 29.6872C36.2368 31.7684 34.3244 32.8091 31.8164 32.8091H30.9758L30.3246 32.6812L29.9043 32.8091C28.0408 32.5116 26.5908 32.009 25.5544 31.3011C24.4055 30.2678 23.6629 29.0857 23.3263 27.7549L23.4316 27.6486V27.5426L22.8852 24.8664L22.9901 24.1234L22.8852 23.1466L23.1166 22.4035C22.9624 22.4035 22.8503 21.6177 22.7804 20.0462L22.9901 19.1757L22.7804 18.5386V18.2199L22.8852 17.7952C22.8852 17.2715 22.3248 16.3726 21.204 15.0985L22.7804 13.1658C22.7804 12.8969 22.9274 12.543 23.2215 12.104C23.0534 12.104 22.9063 11.9626 22.7804 11.6797V11.4669H22.8852L22.7804 10.7024C22.7804 9.3436 23.1026 8.66421 23.7471 8.66421V8.55785H23.5365L23.1166 8.77021L22.8852 8.13309V7.81437L22.9901 7.39008L22.7804 6.83795V6.62518H22.8852C22.7732 4.1195 22.458 2.86662 21.9398 2.86662H20.6576L20.3426 3.07897H20.2373V2.76067C20.8538 1.59979 22.0586 0.707725 23.8519 0.0845233ZM23.6418 3.63115L22.6751 3.3128V3.52474L23.4316 3.73751H23.6418V3.63115ZM25.7641 4.1618H25.2389V4.26822H25.7641V4.1618ZM26.0795 4.37458H25.9742V4.48057L26.6047 4.69293H26.71V4.58693L26.0795 4.37458ZM36.2716 5.45741C36.8182 5.17426 37.1404 4.91944 37.2383 4.69293H37.1335C36.5869 4.93346 36.2997 5.18828 36.2716 5.45741ZM35.3262 5.77618L35.0107 5.88212V5.98806H35.5363V5.88212H35.3262V5.77618ZM26.1848 7.81437H25.8694V8.02714L26.1848 7.92073V7.81437ZM25.3438 8.02714L25.0288 8.13309V8.23908H25.1336L25.6592 8.13309V8.02714H25.3438ZM36.503 15.3108L36.1668 15.6506L36.503 15.5442V15.3108ZM23.6418 16.3936H23.5365V16.5L23.9568 16.7124H24.0621C24.0621 16.6131 23.922 16.5068 23.6418 16.3936ZM27.0462 18.6446L26.71 18.5386L26.6047 18.6446V18.751H27.0462V18.6446ZM24.5872 21.1079H24.4824V21.2143L25.3438 21.5326C25.3438 21.4194 25.0916 21.2778 24.5872 21.1079ZM35.9566 21.1079L35.7465 21.3203V21.4267L35.9566 21.2143V21.1079ZM27.3617 22.4035L26.9409 22.2971V22.4035L27.0462 22.5095H27.3617V22.4035ZM27.6767 22.6159H27.5714V22.7219L28.2018 22.9342C28.2018 22.807 28.0268 22.7008 27.6767 22.6159ZM35.9566 24.7605L35.5363 24.6546V24.8664L35.9566 24.9729V24.7605ZM34.8006 24.8664H34.6957L34.9059 25.0793H35.0107L34.8006 24.8664ZM36.6079 24.9729H36.503V25.0793L36.9233 25.1852C36.9233 25.0436 36.8182 24.9729 36.6079 24.9729ZM37.6586 25.1852L37.1335 25.0793V25.2916H37.6586V25.1852ZM35.3262 25.2916H35.2209L35.431 25.5036H35.5363L35.3262 25.2916ZM37.9741 25.3976H37.8688V25.5036L38.1842 25.6099H38.2891V25.5036L37.9741 25.3976ZM36.7132 26.0557L36.0615 25.7373V25.8437L36.7132 26.2685V26.0557ZM37.7639 26.7991L37.0282 26.4808C37.0282 26.6221 37.1683 26.6928 37.4485 26.6928V26.9055H37.7639V26.7991ZM37.8688 27.0115H37.7639V27.1179L38.1842 27.2238C38.1842 27.0823 38.0791 27.0115 37.8688 27.0115ZM26.4998 29.5812H25.9742V29.6872H26.4998V29.5812ZM25.7641 29.7931H25.4491V30.006L25.7641 29.8996V29.7931ZM51.0663 0.424292L53.735 0.212408C55.3743 0.212408 56.9014 0.898918 58.3163 2.27202C59.7453 3.94257 60.4598 5.52106 60.4598 7.00742C60.4179 7.72958 60.3478 8.09062 60.2496 8.09062L60.4598 8.51533C60.4598 10.2142 59.8925 11.8351 58.7578 13.3781C58.5755 13.3781 58.0781 13.9161 57.2655 14.992V15.2044C58.9467 15.9266 59.9065 16.6486 60.1448 17.3705L60.3549 17.7952L60.2496 18.1354H60.3549C60.565 18.1354 60.67 18.5316 60.67 19.3241V19.7489L60.5651 20.3859L60.67 20.5133L60.5651 21.2568L60.67 22.446L60.4598 22.8707L60.5651 23.2105L60.3549 24.6121C60.565 25.3483 60.74 26.7072 60.8801 28.6889C61.3284 29.1988 61.7207 29.4538 62.0569 29.4538H62.1622C62.4283 29.4538 62.7154 29.3122 63.0237 29.0291H63.1289V29.1351C63.1289 29.5032 63.0238 29.7155 62.8135 29.7721H62.4985L61.8468 29.6661H61.7419V29.7721L62.8135 29.9845C62.3932 31.0181 61.1463 31.9525 59.0728 32.7876L58.6529 32.915H58.3163C57.4898 32.915 56.7824 32.4054 56.1939 31.386C55.8857 31.386 55.4234 30.8481 54.807 29.7721L54.9118 29.6661V29.5598L54.807 28.9017L55.1224 29.0291H55.2273V28.9017C55.0872 28.9017 55.0171 28.7955 55.0171 28.583L54.7017 28.2646L54.807 27.9459L54.7017 27.5211L54.9118 26.1196L54.7017 25.9072V25.2492L54.9118 25.0368L54.807 24.2723L54.9118 23.9535L54.807 23.3165V22.9767L54.9118 22.552L54.807 22.1272V22.0213L54.9118 21.1504L54.807 20.28L54.9118 20.1736V20.0676C54.7437 20.0676 54.6387 19.6004 54.5968 18.666C54.5968 18.0997 53.6372 17.7741 51.718 17.6892H50.3305V21.3628L50.2044 23.4228L50.3305 23.9535L50.2044 24.0599L50.3305 24.6121V25.4615L50.0996 25.6739L50.3305 26.4383L50.2044 26.5443L50.3305 26.6507L50.2044 26.7566H50.0996L50.3305 27.8399L50.2044 27.9459V28.0518L50.3305 28.477L50.2044 28.7953C50.723 29.8853 51.2974 30.4302 51.9277 30.4302C52.2642 30.4302 52.6565 30.2109 53.1045 29.7721H53.2098V29.8781C52.9435 30.5579 52.5861 31.0253 52.1378 31.2801C51.6057 32.3701 50.8914 32.915 49.9947 32.915C49.042 32.8017 48.1523 32.3276 47.3256 31.4925C46.6811 32.285 46.0787 32.6812 45.5183 32.6812H45.3081C44.2153 32.6812 42.9335 31.7468 41.4626 29.8781V29.7721L43.0597 30.1969L43.711 30.0909L44.026 30.1969L43.9211 30.0909V29.9845C44.0754 29.9845 44.2855 29.5526 44.5516 28.6889C44.4115 28.6889 44.3414 28.5828 44.3414 28.3706L44.4467 28.2646L44.3414 27.7335V27.5211L44.4467 26.6507L44.3414 26.0136L44.4467 25.6739L44.3414 25.0368V24.5057L44.4467 24.3783L44.3414 24.2723V20.938L44.5516 20.6198L44.3414 18.1354L44.4467 17.7952L42.8492 16.0753L42.7443 15.9689V15.8629C43.8792 14.5462 44.4467 13.6471 44.4467 13.1658L44.5516 12.4017L44.4467 12.2953V12.083L44.5516 11.6582L44.3414 10.9997V10.8938L44.5516 10.6814L44.3414 9.91693L44.4467 9.38622L44.3414 8.40938V7.45355L44.4467 6.90142L44.3414 6.15794L44.5516 3.56763C44.0752 3.05768 43.6129 2.80273 43.1646 2.80273L41.4626 3.67362V3.56763C42.2752 2.36412 43.2348 1.57134 44.3414 1.18924C44.5237 0.8918 44.986 0.743061 45.7284 0.743061C46.2189 0.842018 46.7863 1.23841 47.4304 1.93225C49.0698 0.856307 50.2116 0.31835 50.8561 0.31835H50.961L51.0663 0.424292ZM48.944 1.7199H48.3975V1.82631H48.944V1.7199ZM50.5411 1.7199H50.4358V1.82631L50.961 1.93225H51.0663V1.82631L50.5411 1.7199ZM51.4866 1.93225H51.2764V2.03867L51.8228 2.14461H52.1378V1.93225H52.033L51.5914 2.03867L51.4866 1.93225ZM53.3147 2.27202H52.8736V2.37843L53.3147 2.48438V2.27202ZM54.5968 2.48438H54.2605V2.59079L55.0171 2.69673H55.2273V2.59079L54.5968 2.48438ZM55.8785 2.69673H55.4374V2.80273H55.8785V2.69673ZM56.1939 2.90909H56.0887V3.0155L56.8244 3.12144H57.3708V3.0155L56.1939 2.90909ZM57.7911 3.12144H57.581V3.22786L58.2114 3.33385H58.4424V3.22786L57.7911 3.12144ZM51.5914 3.56763H51.4866C51.4866 3.77984 51.4165 3.88598 51.2764 3.88598L51.1715 3.77998L50.646 3.88598H50.3305V4.96875L50.2044 5.39394L50.3305 5.49988V5.60582L50.2044 6.47671L50.3305 7.98425L50.2044 8.62132L50.3305 9.49221V10.2567L50.0996 10.5754L50.3305 11.2125L50.2044 11.9766L50.3305 12.4017L50.2044 12.8474C50.2044 13.4844 50.4217 13.8028 50.8561 13.8028L52.3484 13.9093C53.7774 13.5129 54.4919 12.798 54.4919 11.7647C54.4919 11.1841 54.667 10.8938 55.0171 10.8938V10.7873C54.7369 10.7873 54.5968 10.6813 54.5968 10.4691V8.30297L54.807 8.09062C54.5409 5.64157 54.1836 4.41705 53.735 4.41705C53.735 4.16222 53.2026 3.94987 52.1378 3.77998V3.67362L52.033 3.77998H51.5914V3.56763ZM58.1065 11.8706L57.581 12.083V12.1889H57.7911L58.2114 11.8706H58.1065ZM45.7284 12.7411L45.3081 12.4017V12.6137L45.7284 12.8474V12.7411ZM56.2992 12.8474L55.9838 12.9538V13.0598H56.2992L56.4041 12.9538V12.8474H56.2992ZM54.9118 13.4845H54.5968V13.6969L54.9118 13.5909V13.4845ZM53.6301 14.0367L53.3147 14.1426V14.355L53.8402 14.1426V14.0367H53.6301ZM52.6634 14.4614L52.1378 14.5673L52.2431 14.6737V14.7797L52.6634 14.6737V14.4614ZM51.1715 14.8861L50.4358 15.0985V15.2044H50.7508L51.4866 14.992V14.8861H51.1715ZM52.9997 14.992H52.4533V15.0985H52.9997V14.992ZM54.807 15.4382H54.7017V15.5442L55.2273 15.6506H55.4374V15.5442L54.807 15.4382ZM56.1939 15.7565L55.7736 15.6506C55.7736 15.7922 55.8787 15.8629 56.0887 15.8629H56.1939V15.7565ZM48.3975 15.8629H47.872V16.0753L48.3975 15.9689V15.8629ZM57.1606 16.0753H57.0553V16.1812L57.4761 16.2876H57.6858V16.1812L57.1606 16.0753ZM45.5183 16.2876H44.9927V16.3936H45.5183V16.2876ZM46.0439 16.2876H45.9386C45.9386 16.4858 45.5112 16.6699 44.6565 16.8398V16.9462H44.9927C45.5953 16.6487 46.0577 16.5 46.3801 16.5V16.2876L46.2748 16.3936H46.1487L46.0439 16.2876ZM59.1781 16.8398L58.7578 16.7334V16.9462H59.1781V16.8398ZM50.8561 16.9462L50.5411 16.8398V17.0521H50.8561V16.9462ZM56.7191 29.0291H56.6142V29.1351L57.7911 29.4538H58.1065C58.1065 29.3546 57.6441 29.213 56.7191 29.0291ZM59.2834 29.4538L58.4424 29.3474L58.3163 29.4538V29.5598H59.2834V29.4538ZM60.67 29.6661L60.2496 29.5598C60.2496 29.7014 60.3548 29.7721 60.5651 29.7721H60.67V29.6661ZM66.7015 0.0845233C67.4439 0.26871 68.1164 0.665284 68.7189 1.27419C69.3354 0.552027 69.8678 0.190937 70.3161 0.190937H70.4209C71.3037 0.403437 71.9762 0.835311 72.4384 1.48654L72.2283 1.69848H72.4384L72.7538 1.59248L73.9307 2.97261V3.07897L73.0688 2.86662H72.4384C72.1163 2.86662 71.8292 3.58163 71.577 5.01164L71.7027 5.11764L71.4717 6.83795L71.577 7.81437L71.3668 9.32233L71.577 9.53469L71.4717 10.0653L71.577 10.7024V10.8088H71.2616L71.4717 11.1276L71.3668 11.7857C71.3668 12.9322 72.0393 14.0365 73.3843 15.0985C72.8938 15.8063 72.5434 16.2027 72.3331 16.2876L72.2283 16.1812C72.2283 16.5353 72.0882 16.7124 71.808 16.7124L71.9132 16.8183V16.9247L71.3668 18.1139L71.577 18.4323V18.6446L71.4717 19.0693L71.577 19.494V19.9402L71.2616 20.2585C71.3456 20.8957 71.4508 21.2143 71.577 21.2143L71.4717 21.8724L71.577 24.0174L71.3668 24.3358L71.577 25.2916V25.5036L71.4717 25.6099C71.9622 27.8327 72.7468 28.9441 73.8254 28.9441H74.666C76.2071 28.9441 77.1318 27.9813 77.44 26.0557L77.3139 25.0793V24.4422L77.5449 24.1234L77.3139 23.9111V23.6987L77.5449 23.359L77.44 23.0406L77.5449 22.9342L77.3139 22.7219L77.5449 20.6832L77.44 19.3881H77.5449L77.3139 18.0075L77.44 17.9015V17.7952C77.44 17.498 77.2229 16.9955 76.7887 16.2876V16.0753L76.6835 16.1812H76.5782C76.5782 15.8981 76.4382 15.7565 76.1583 15.7565L75.6327 15.0985C76.7535 13.81 77.3139 13.0596 77.3139 12.8474L77.44 12.3168L77.3139 11.998L77.44 11.8916H77.5449L77.3139 11.3609H77.44L77.3139 11.2335L77.44 10.1718L77.3139 9.0885L77.5449 7.49602L77.3139 7.28366L77.44 7.15625L77.3139 6.62518V6.51918L77.44 6.41324L77.3139 6.30683V5.11764L77.5449 4.90528L77.44 4.37458V3.63115L76.6835 2.76067H75.9477C75.7097 2.76067 75.4576 2.86676 75.1916 3.07897H75.0863V2.97261C75.6606 1.88265 76.4451 1.09699 77.44 0.615648L77.755 0.72159L78.0704 0.403292H78.2806C78.6307 0.403292 79.093 0.693598 79.6676 1.27419C80.0879 0.83517 80.5433 0.615648 81.0338 0.615648H81.2647C83.03 1.28089 83.9126 1.9959 83.9126 2.76067L84.1228 2.97261V3.07897H84.0175L82.5257 2.76067C82.0352 2.93056 81.7899 3.3976 81.7899 4.1618L81.8952 4.58693L81.6851 5.24505L81.8952 5.88212V9.42827L81.7899 10.0653L81.8952 10.7024L81.7899 11.3609L81.8952 12.104L81.7899 12.4227C81.7899 12.7768 82.3923 13.5979 83.5972 14.8861V15.2044C82.7708 15.9832 82.1334 16.7761 81.6851 17.5832L81.7899 17.6892H81.8952L81.6851 18.9633L81.8952 19.494L81.7899 20.0462L81.8952 21.2143V21.4267L81.6851 22.0848L81.8952 22.6159L81.7899 23.9111L81.8952 24.2294L81.6851 24.4422L81.8952 24.6546V24.7605C81.8952 25.2845 81.79 25.5676 81.5797 25.6099L81.2647 25.5036C81.2647 25.6594 81.4049 25.7373 81.6851 25.7373L81.7899 25.8437V25.9497C81.7899 26.8134 81.3277 28.0593 80.4033 29.6872C79.0864 31.7684 77.1739 32.8091 74.666 32.8091H73.8254L73.1742 32.6812L72.7538 32.8091C70.8904 32.5116 69.4403 32.009 68.4035 31.3011C67.2547 30.2678 66.5122 29.0857 66.1759 27.7549L66.2812 27.6486V27.5426L65.7348 24.8664L65.8397 24.1234L65.7348 23.1466L65.9658 22.4035C65.8118 22.4035 65.6997 21.6177 65.6295 20.0462L65.8397 19.1757L65.6295 18.5386V18.2199L65.7348 17.7952C65.7348 17.2715 65.1744 16.3726 64.0536 15.0985L65.6295 13.1658C65.6295 12.8969 65.7767 12.543 66.071 12.104C65.9029 12.104 65.7558 11.9626 65.6295 11.6797V11.4669H65.7348L65.6295 10.7024C65.6295 9.3436 65.9517 8.66421 66.5962 8.66421V8.55785H66.3861L65.9658 8.77021L65.7348 8.13309V7.81437L65.8397 7.39008L65.6295 6.83795V6.62518H65.7348C65.6227 4.1195 65.3074 2.86662 64.7889 2.86662H63.5072L63.1918 3.07897H63.0869V2.76067C63.7033 1.59979 64.9082 0.707725 66.7015 0.0845233ZM66.4913 3.63115L65.5247 3.3128V3.52474L66.2812 3.73751H66.4913V3.63115ZM68.6137 4.1618H68.0885V4.26822H68.6137V4.1618ZM68.9291 4.37458H68.8238V4.48057L69.4543 4.69293H69.5595V4.58693L68.9291 4.37458ZM79.1212 5.45741C79.6677 5.17426 79.99 4.91944 80.0879 4.69293H79.9826C79.4364 4.93346 79.1492 5.18828 79.1212 5.45741ZM78.1753 5.77618L77.8603 5.88212V5.98806H78.3855V5.88212H78.1753V5.77618ZM69.034 7.81437H68.7189V8.02714L69.034 7.92073V7.81437ZM68.1933 8.02714L67.8784 8.13309V8.23908H67.9832L68.5088 8.13309V8.02714H68.1933ZM79.3522 15.3108L79.0159 15.6506L79.3522 15.5442V15.3108ZM66.4913 16.3936H66.3861V16.5L66.8064 16.7124H66.9116C66.9116 16.6131 66.7715 16.5068 66.4913 16.3936ZM69.8954 18.6446L69.5595 18.5386L69.4543 18.6446V18.751H69.8954V18.6446ZM67.4368 21.1079H67.3319V21.2143L68.1933 21.5326C68.1933 21.4194 67.9412 21.2778 67.4368 21.1079ZM78.8058 21.1079L78.596 21.3203V21.4267L78.8058 21.2143V21.1079ZM70.2108 22.4035L69.7905 22.2971V22.4035L69.8954 22.5095H70.2108V22.4035ZM70.5258 22.6159H70.4209V22.7219L71.0514 22.9342C71.0514 22.807 70.8762 22.7008 70.5258 22.6159ZM78.8058 24.7605L78.3855 24.6546V24.8664L78.8058 24.9729V24.7605ZM77.6501 24.8664H77.5449L77.755 25.0793H77.8603L77.6501 24.8664ZM79.4575 24.9729H79.3522V25.0793L79.7729 25.1852C79.7729 25.0436 79.6677 24.9729 79.4575 24.9729ZM80.5082 25.1852L79.9826 25.0793V25.2916H80.5082V25.1852ZM78.1753 25.2916H78.0704L78.2806 25.5036H78.3855L78.1753 25.2916ZM80.8236 25.3976H80.7183V25.5036L81.0338 25.6099H81.1386V25.5036L80.8236 25.3976ZM79.5627 26.0557L78.9111 25.7373V25.8437L79.5627 26.2685V26.0557ZM80.6131 26.7991L79.8777 26.4808C79.8777 26.6221 80.0178 26.6928 80.298 26.6928V26.9055H80.6131V26.7991ZM80.7183 27.0115H80.6131V27.1179L81.0338 27.2238C81.0338 27.0823 80.9286 27.0115 80.7183 27.0115ZM69.3494 29.5812H68.8238V29.6872H69.3494V29.5812ZM68.6137 29.7931H68.2986V30.006L68.6137 29.8996V29.7931ZM93.9158 0.424292L96.5845 0.212408C98.2239 0.212408 99.751 0.898918 101.166 2.27202C102.595 3.94257 103.309 5.52106 103.309 7.00742C103.267 7.72958 103.197 8.09062 103.099 8.09062L103.309 8.51533C103.309 10.2142 102.742 11.8351 101.607 13.3781C101.425 13.3781 100.928 13.9161 100.115 14.992V15.2044C101.796 15.9266 102.756 16.6486 102.994 17.3705L103.205 17.7952L103.099 18.1354H103.205C103.415 18.1354 103.52 18.5316 103.52 19.3241V19.7489L103.415 20.3859L103.52 20.5133L103.415 21.2568L103.52 22.446L103.309 22.8707L103.415 23.2105L103.205 24.6121C103.415 25.3483 103.59 26.7072 103.73 28.6889C104.178 29.1988 104.57 29.4538 104.907 29.4538H105.012C105.278 29.4538 105.565 29.3122 105.873 29.0291H105.978V29.1351C105.978 29.5032 105.873 29.7155 105.663 29.7721H105.348L104.696 29.6661H104.591V29.7721L105.663 29.9845C105.243 31.0181 103.996 31.9525 101.922 32.7876L101.502 32.915H101.166C100.339 32.915 99.6316 32.4054 99.0435 31.386C98.735 31.386 98.2727 30.8481 97.6565 29.7721L97.7614 29.6661V29.5598L97.6565 28.9017L97.9715 29.0291H98.0768V28.9017C97.9367 28.9017 97.8667 28.7955 97.8667 28.583L97.5512 28.2646L97.6565 27.9459L97.5512 27.5211L97.7614 26.1196L97.5512 25.9072V25.2492L97.7614 25.0368L97.6565 24.2723L97.7614 23.9535L97.6565 23.3165V22.9767L97.7614 22.552L97.6565 22.1272V22.0213L97.7614 21.1504L97.6565 20.28L97.7614 20.1736V20.0676C97.5933 20.0676 97.4883 19.6004 97.4464 18.666C97.4464 18.0997 96.4866 17.7741 94.5671 17.6892H93.1801V21.3628L93.054 23.4228L93.1801 23.9535L93.054 24.0599L93.1801 24.6121V25.4615L92.9491 25.6739L93.1801 26.4383L93.054 26.5443L93.1801 26.6507L93.054 26.7566H92.9491L93.1801 27.8399L93.054 27.9459V28.0518L93.1801 28.477L93.054 28.7953C93.5725 29.8853 94.1469 30.4302 94.7772 30.4302C95.1135 30.4302 95.5058 30.2109 95.9541 29.7721H96.059V29.8781C95.7929 30.5579 95.4357 31.0253 94.9874 31.2801C94.455 32.3701 93.7405 32.915 92.8439 32.915C91.8912 32.8017 91.0016 32.3276 90.1751 31.4925C89.5307 32.285 88.9282 32.6812 88.3678 32.6812H88.1577C87.0649 32.6812 85.7829 31.7468 84.3117 29.8781V29.7721L85.9089 30.1969L86.5605 30.0909L86.876 30.1969L86.7707 30.0909V29.9845C86.9247 29.9845 87.1348 29.5526 87.4012 28.6889C87.2611 28.6889 87.191 28.5828 87.191 28.3706L87.2959 28.2646L87.191 27.7335V27.5211L87.2959 26.6507L87.191 26.0136L87.2959 25.6739L87.191 25.0368V24.5057L87.2959 24.3783L87.191 24.2723V20.938L87.4012 20.6198L87.191 18.1354L87.2959 17.7952L85.6991 16.0753L85.5939 15.9689V15.8629C86.7285 14.5462 87.2959 13.6471 87.2959 13.1658L87.4012 12.4017L87.2959 12.2953V12.083L87.4012 11.6582L87.191 10.9997V10.8938L87.4012 10.6814L87.191 9.91693L87.2959 9.38622L87.191 8.40938V7.45355L87.2959 6.90142L87.191 6.15794L87.4012 3.56763C86.9248 3.05768 86.4625 2.80273 86.0141 2.80273L84.3117 3.67362V3.56763C85.1246 2.36412 86.0844 1.57134 87.191 1.18924C87.373 0.8918 87.8353 0.743061 88.578 0.743061C89.0682 0.842018 89.6356 1.23841 90.28 1.93225C91.9193 0.856307 93.0612 0.31835 93.7057 0.31835H93.8105L93.9158 0.424292ZM91.7931 1.7199H91.2467V1.82631H91.7931V1.7199ZM93.3902 1.7199H93.2854V1.82631L93.8105 1.93225H93.9158V1.82631L93.3902 1.7199ZM94.3361 1.93225H94.126V2.03867L94.6724 2.14461H94.9874V1.93225H94.8825L94.441 2.03867L94.3361 1.93225ZM96.1642 2.27202H95.7231V2.37843L96.1642 2.48438V2.27202ZM97.4464 2.48438H97.1101V2.59079L97.8667 2.69673H98.0768V2.59079L97.4464 2.48438ZM98.7281 2.69673H98.287V2.80273H98.7281V2.69673ZM99.0435 2.90909H98.9382V3.0155L99.674 3.12144H100.22V3.0155L99.0435 2.90909ZM100.641 3.12144H100.431V3.22786L101.061 3.33385H101.292V3.22786L100.641 3.12144ZM94.441 3.56763H94.3361C94.3361 3.77984 94.2661 3.88598 94.126 3.88598L94.0207 3.77998L93.4955 3.88598H93.1801V4.96875L93.054 5.39394L93.1801 5.49988V5.60582L93.054 6.47671L93.1801 7.98425L93.054 8.62132L93.1801 9.49221V10.2567L92.9491 10.5754L93.1801 11.2125L93.054 11.9766L93.1801 12.4017L93.054 12.8474C93.054 13.4844 93.2712 13.8028 93.7057 13.8028L95.1976 13.9093C96.6266 13.5129 97.3411 12.798 97.3411 11.7647C97.3411 11.1841 97.5163 10.8938 97.8667 10.8938V10.7873C97.5865 10.7873 97.4464 10.6813 97.4464 10.4691V8.30297L97.6565 8.09062C97.3902 5.64157 97.0329 4.41705 96.5845 4.41705C96.5845 4.16222 96.0522 3.94987 94.9874 3.77998V3.67362L94.8825 3.77998H94.441V3.56763ZM100.956 11.8706L100.431 12.083V12.1889H100.641L101.061 11.8706H100.956ZM88.578 12.7411L88.1577 12.4017V12.6137L88.578 12.8474V12.7411ZM99.1484 12.8474L98.8334 12.9538V13.0598H99.1484L99.2537 12.9538V12.8474H99.1484ZM97.7614 13.4845H97.4464V13.6969L97.7614 13.5909V13.4845ZM96.4797 14.0367L96.1642 14.1426V14.355L96.6894 14.1426V14.0367H96.4797ZM95.513 14.4614L94.9874 14.5673L95.0927 14.6737V14.7797L95.513 14.6737V14.4614ZM94.0207 14.8861L93.2854 15.0985V15.2044H93.6004L94.3361 14.992V14.8861H94.0207ZM95.8492 14.992H95.3028V15.0985H95.8492V14.992ZM97.6565 15.4382H97.5512V15.5442L98.0768 15.6506H98.287V15.5442L97.6565 15.4382ZM99.0435 15.7565L98.6232 15.6506C98.6232 15.7922 98.7282 15.8629 98.9382 15.8629H99.0435V15.7565ZM91.2467 15.8629H90.7215V16.0753L91.2467 15.9689V15.8629ZM100.01 16.0753H99.9049V16.1812L100.325 16.2876H100.535V16.1812L100.01 16.0753ZM88.3678 16.2876H87.8423V16.3936H88.3678V16.2876ZM88.893 16.2876H88.7881C88.7881 16.4858 88.3609 16.6699 87.5064 16.8398V16.9462H87.8423C88.4448 16.6487 88.9072 16.5 89.2292 16.5V16.2876L89.1244 16.3936H88.9983L88.893 16.2876ZM102.028 16.8398L101.607 16.7334V16.9462H102.028V16.8398ZM93.7057 16.9462L93.3902 16.8398V17.0521H93.7057V16.9462ZM99.5687 29.0291H99.4638V29.1351L100.641 29.4538H100.956C100.956 29.3546 100.493 29.213 99.5687 29.0291ZM102.133 29.4538L101.292 29.3474L101.166 29.4538V29.5598H102.133V29.4538ZM103.52 29.6661L103.099 29.5598C103.099 29.7014 103.204 29.7721 103.415 29.7721H103.52V29.6661ZM109.551 0.0845233C110.293 0.26871 110.966 0.665284 111.568 1.27419C112.185 0.552027 112.717 0.190937 113.165 0.190937H113.271C114.153 0.403437 114.825 0.835311 115.288 1.48654L115.078 1.69848H115.288L115.603 1.59248L116.78 2.97261V3.07897L115.918 2.86662H115.288C114.966 2.86662 114.678 3.58163 114.426 5.01164L114.553 5.11764L114.321 6.83795L114.426 7.81437L114.216 9.32233L114.426 9.53469L114.321 10.0653L114.426 10.7024V10.8088H114.111L114.321 11.1276L114.216 11.7857C114.216 12.9322 114.889 14.0365 116.233 15.0985C115.743 15.8063 115.393 16.2027 115.183 16.2876L115.078 16.1812C115.078 16.5353 114.938 16.7124 114.658 16.7124L114.762 16.8183V16.9247L114.216 18.1139L114.426 18.4323V18.6446L114.321 19.0693L114.426 19.494V19.9402L114.111 20.2585C114.195 20.8957 114.3 21.2143 114.426 21.2143L114.321 21.8724L114.426 24.0174L114.216 24.3358L114.426 25.2916V25.5036L114.321 25.6099C114.811 27.8327 115.596 28.9441 116.675 28.9441H117.516C119.057 28.9441 119.981 27.9813 120.29 26.0557L120.163 25.0793V24.4422L120.394 24.1234L120.163 23.9111V23.6987L120.394 23.359L120.29 23.0406L120.394 22.9342L120.163 22.7219L120.394 20.6832L120.29 19.3881H120.394L120.163 18.0075L120.29 17.9015V17.7952C120.29 17.498 120.072 16.9955 119.638 16.2876V16.0753L119.533 16.1812H119.428C119.428 15.8981 119.288 15.7565 119.007 15.7565L118.482 15.0985C119.603 13.81 120.163 13.0596 120.163 12.8474L120.29 12.3168L120.163 11.998L120.29 11.8916H120.394L120.163 11.3609H120.29L120.163 11.2335L120.29 10.1718L120.163 9.0885L120.394 7.49602L120.163 7.28366L120.29 7.15625L120.163 6.62518V6.51918L120.29 6.41324L120.163 6.30683V5.11764L120.394 4.90528L120.29 4.37458V3.63115L119.533 2.76067H118.798C118.559 2.76067 118.307 2.86676 118.041 3.07897H117.936V2.97261C118.51 1.88265 119.295 1.09699 120.29 0.615648L120.605 0.72159L120.92 0.403292H121.13C121.48 0.403292 121.943 0.693598 122.517 1.27419C122.937 0.83517 123.393 0.615648 123.883 0.615648H124.114C125.88 1.28089 126.762 1.9959 126.762 2.76067L126.972 2.97261V3.07897H126.867L125.375 2.76067C124.885 2.93056 124.639 3.3976 124.639 4.1618L124.745 4.58693L124.535 5.24505L124.745 5.88212V9.42827L124.639 10.0653L124.745 10.7024L124.639 11.3609L124.745 12.104L124.639 12.4227C124.639 12.7768 125.242 13.5979 126.447 14.8861V15.2044C125.62 15.9832 124.983 16.7761 124.535 17.5832L124.639 17.6892H124.745L124.535 18.9633L124.745 19.494L124.639 20.0462L124.745 21.2143V21.4267L124.535 22.0848L124.745 22.6159L124.639 23.9111L124.745 24.2294L124.535 24.4422L124.745 24.6546V24.7605C124.745 25.2845 124.64 25.5676 124.429 25.6099L124.114 25.5036C124.114 25.6594 124.254 25.7373 124.535 25.7373L124.639 25.8437V25.9497C124.639 26.8134 124.177 28.0593 123.252 29.6872C121.936 31.7684 120.023 32.8091 117.516 32.8091H116.675L116.023 32.6812L115.603 32.8091C113.74 32.5116 112.29 32.009 111.253 31.3011C110.104 30.2678 109.362 29.0857 109.025 27.7549L109.13 27.6486V27.5426L108.584 24.8664L108.689 24.1234L108.584 23.1466L108.815 22.4035C108.661 22.4035 108.549 21.6177 108.479 20.0462L108.689 19.1757L108.479 18.5386V18.2199L108.584 17.7952C108.584 17.2715 108.024 16.3726 106.903 15.0985L108.479 13.1658C108.479 12.8969 108.626 12.543 108.92 12.104C108.752 12.104 108.605 11.9626 108.479 11.6797V11.4669H108.584L108.479 10.7024C108.479 9.3436 108.801 8.66421 109.446 8.66421V8.55785H109.236L108.815 8.77021L108.584 8.13309V7.81437L108.689 7.39008L108.479 6.83795V6.62518H108.584C108.472 4.1195 108.157 2.86662 107.638 2.86662H106.357L106.041 3.07897H105.936V2.76067C106.553 1.59979 107.757 0.707725 109.551 0.0845233ZM109.341 3.63115L108.374 3.3128V3.52474L109.13 3.73751H109.341V3.63115ZM111.463 4.1618H110.938V4.26822H111.463V4.1618ZM111.779 4.37458H111.673V4.48057L112.304 4.69293H112.409V4.58693L111.779 4.37458ZM121.971 5.45741C122.517 5.17426 122.839 4.91944 122.937 4.69293H122.832C122.286 4.93346 121.999 5.18828 121.971 5.45741ZM121.025 5.77618L120.71 5.88212V5.98806H121.235V5.88212H121.025V5.77618ZM111.884 7.81437H111.568V8.02714L111.884 7.92073V7.81437ZM111.043 8.02714L110.727 8.13309V8.23908H110.833L111.358 8.13309V8.02714H111.043ZM122.202 15.3108L121.865 15.6506L122.202 15.5442V15.3108ZM109.341 16.3936H109.236V16.5L109.656 16.7124H109.761C109.761 16.6131 109.621 16.5068 109.341 16.3936ZM112.745 18.6446L112.409 18.5386L112.304 18.6446V18.751H112.745V18.6446ZM110.286 21.1079H110.181V21.2143L111.043 21.5326C111.043 21.4194 110.791 21.2778 110.286 21.1079ZM121.655 21.1079L121.445 21.3203V21.4267L121.655 21.2143V21.1079ZM113.06 22.4035L112.64 22.2971V22.4035L112.745 22.5095H113.06V22.4035ZM113.375 22.6159H113.271V22.7219L113.901 22.9342C113.901 22.807 113.726 22.7008 113.375 22.6159ZM121.655 24.7605L121.235 24.6546V24.8664L121.655 24.9729V24.7605ZM120.5 24.8664H120.394L120.605 25.0793H120.71L120.5 24.8664ZM122.307 24.9729H122.202V25.0793L122.622 25.1852C122.622 25.0436 122.517 24.9729 122.307 24.9729ZM123.358 25.1852L122.832 25.0793V25.2916H123.358V25.1852ZM121.025 25.2916H120.92L121.13 25.5036H121.235L121.025 25.2916ZM123.673 25.3976H123.568V25.5036L123.883 25.6099H123.988V25.5036L123.673 25.3976ZM122.412 26.0557L121.761 25.7373V25.8437L122.412 26.2685V26.0557ZM123.463 26.7991L122.727 26.4808C122.727 26.6221 122.867 26.6928 123.148 26.6928V26.9055H123.463V26.7991ZM123.568 27.0115H123.463V27.1179L123.883 27.2238C123.883 27.0823 123.778 27.0115 123.568 27.0115ZM112.199 29.5812H111.673V29.6872H112.199V29.5812ZM111.463 29.7931H111.148V30.006L111.463 29.8996V29.7931ZM137.206 0.212408H138.573C139.119 0.424623 139.616 0.530706 140.065 0.530706C140.065 0.75722 140.373 0.898788 140.989 0.955417L142.586 2.14461C143.455 1.50768 144.022 0.934237 144.288 0.424292H144.394V1.59248L144.499 1.69848V1.82631C144.387 1.82631 144.282 1.96774 144.184 2.2506C144.394 2.2506 144.499 2.31435 144.499 2.44191V2.76067L144.394 2.88767L144.499 2.99403V3.10044L144.394 3.20639L144.499 3.3128V3.86492L144.394 4.48057L144.499 4.58693V4.69293L144.394 5.0327L144.499 5.35099L144.288 5.54235L144.499 5.7547L144.394 6.30683L144.499 6.62518L144.288 7.05031L144.499 7.26225L144.394 7.36861L144.499 7.47502V7.58096L144.394 9.61963V9.72557L144.288 9.8534V9.91693L144.499 10.1503V10.6814L144.184 11.1276L144.499 11.6368V11.8496L144.288 12.083H141.431L141.325 11.9555L141.22 12.083H140.695L140.59 11.9555H140.485L140.38 12.083L140.275 11.7432L140.38 10.0443L140.275 9.91693V9.8534L140.485 9.19492L140.275 8.98256V8.53638H140.485V8.43038L140.275 8.13309V8.02714L140.485 7.79332C140.485 6.22173 140.03 5.1175 139.119 4.48057C139.119 4.29667 138.482 4.11975 137.206 3.94987V3.86492L136.66 4.05586V3.94987C135.75 4.67174 135.294 5.70523 135.294 7.05031L135.105 7.26225V7.47502L135.189 8.23908L135.105 8.34544L135.294 8.53638V9.72557H135.105L135.189 10.2567V10.5754L135.105 11.2335L135.294 11.8496L135.189 11.9555L135.294 12.083V12.2953L135.105 13.2507L135.189 13.6759H135.105L135.294 14.5249V14.95L135.189 15.3958C135.189 15.5799 135.791 16.3231 136.996 17.6253C136.716 18.0926 136.219 18.6306 135.504 19.2392L135.105 20.8321V21.3842L135.189 21.7875L135.105 22.2122L135.294 22.6584L135.105 23.5078L135.294 24.2723L135.105 24.4847L134.559 24.2723H134.453V24.3783C134.944 24.4349 135.189 24.6048 135.189 24.8879L135.105 25.5465L135.294 26.3959L135.189 26.5018V26.6082C135.637 28.4487 136.31 29.3689 137.206 29.3689H137.858C139.609 28.6184 140.485 27.5636 140.485 26.2045L140.59 26.0771L140.884 26.2045H141.22V26.0771C140.66 26.0771 140.38 25.787 140.38 25.2067L140.485 25.1003L140.38 24.4847L140.485 23.2105L140.38 22.552L140.485 22.446H140.695L140.884 22.6584L141.22 22.552L144.288 22.446V22.7644H144.184L144.394 24.5906V25.8647L144.184 26.2045L144.394 26.5018L144.288 27.0329V27.3727H143.953V27.1389H143.763C143.763 27.3654 143.903 27.4787 144.184 27.4787L144.288 27.5846V27.6911C143.77 29.2483 142.853 30.4164 141.536 31.1952C140.653 32.3418 139.098 32.915 136.87 32.915C136.352 32.915 135.266 32.377 133.613 31.3011C132.674 30.1685 131.932 29.1705 131.386 28.3071V28.0947L131.49 27.7549H131.386C131.245 27.7549 130.93 27.0541 130.44 25.6524L130.545 25.5465L130.019 24.8879L129.473 22.6584L129.284 21.3842L129.368 21.2778V21.1719C129.368 20.1099 128.738 19.0693 127.477 18.05L127.161 17.6253L128.632 15.8205L128.969 14.0152L128.864 13.8878C128.934 13.0384 129.039 12.543 129.179 12.4017L129.074 11.9555L129.284 11.5308L129.179 11.2335C129.823 8.18988 130.419 6.29282 130.965 5.54235C131.007 5.13193 131.147 4.9267 131.386 4.9267V4.69293C131.386 4.16897 131.638 3.74427 132.142 3.41879C132.338 2.61198 133.039 1.9324 134.244 1.38013C134.313 1.1396 134.699 0.934418 135.399 0.764532C135.399 0.396446 136.002 0.212408 137.206 0.212408ZM140.275 1.69848V1.82631H140.38C140.38 1.5998 140.485 1.48654 140.695 1.48654L140.8 1.16777H140.695C140.555 1.19609 140.415 1.37301 140.275 1.69848ZM139.518 1.69848H139.329V2.03867H139.434L139.518 1.69848ZM138.467 2.76067H138.047V2.88767H138.467V2.76067ZM138.152 3.10044H138.047L137.963 3.20639V3.41879H138.047L138.152 3.10044ZM133.508 3.20639H133.192L133.088 3.3128V3.41879H133.192L133.508 3.3128V3.20639ZM137.858 3.63115L137.627 3.41879L137.522 3.52474V3.63115H137.858ZM132.436 4.26822L132.037 4.69293H132.226V4.48057C132.436 4.48057 132.541 4.40979 132.541 4.26822H132.436ZM140.485 4.58693H140.38V4.69293L140.884 4.9267V4.69293L140.485 4.58693ZM141.746 5.86112L142.187 6.51918V6.62518H142.376L142.292 6.51918V6.41324L142.376 6.30683V6.20089C142.194 6.20089 141.984 6.08763 141.746 5.86112ZM141.431 6.09447L141.115 5.98806V6.20089H141.431V6.09447ZM142.692 6.73154H142.481V6.9229H142.692C142.692 7.14912 142.804 7.26225 143.027 7.26225V7.47502H143.238L142.692 6.73154ZM143.953 7.68738H143.847V8.13309H144.078C144.218 8.13309 144.288 8.01983 144.288 7.79332V7.68738H144.184V7.92073H143.953V7.68738ZM133.298 22.9767H133.192C133.192 23.1609 132.975 23.3379 132.541 23.5078V23.7201L133.298 23.0831V22.9767ZM133.613 23.6138H133.403L133.298 23.9325H134.033V23.8261L133.613 23.6138ZM135 24.0385L134.453 23.7201L134.348 23.8261V23.9325L134.895 24.1449H135V24.0385ZM132.142 24.1449L131.827 24.0385C131.673 24.3642 131.526 24.5483 131.386 24.5906V24.4847L131.07 24.5906V24.782L131.175 24.697H131.386L131.49 24.782H131.596C131.596 24.5128 131.778 24.3429 132.142 24.2723V24.1449ZM130.965 24.782L130.671 24.8879V25.2067L131.07 24.9943L130.965 24.8879V24.782ZM141.851 25.8647L141.536 25.9712V26.0771H141.851V25.8647ZM142.292 26.3959H141.977V26.5018L142.292 26.6082V26.3959ZM142.901 26.6082L142.376 26.5018V26.7142H142.901V26.6082ZM160.512 0.254408H160.827C161.584 0.254408 162.403 1.0049 163.286 2.50585L163.538 3.29138H163.391C163.013 2.68276 162.459 2.37843 161.731 2.37843C161.353 2.37843 161.051 2.60481 160.827 3.05755L161.29 5.54235C161.149 5.54235 161.079 5.6556 161.079 5.88212L160.974 5.7547H160.827V6.32783H160.974L161.079 5.88212H161.29C161.906 11.4317 162.537 14.2066 163.181 14.2066L163.391 14.8861C163.643 14.8861 164.098 15.2187 164.757 15.8839V16.0113C164.141 16.7475 163.685 17.4271 163.391 18.05L165.43 29.9845C165.654 30.5791 165.983 30.8764 166.418 30.8764H166.753C167.174 30.8764 167.622 30.5791 168.098 29.9845L168.204 30.0909C166.915 31.8887 165.689 32.7876 164.526 32.7876L163.181 32.0021H162.971C162.074 32.5967 161.444 32.894 161.079 32.894H160.617C159.58 32.894 158.621 32.1365 157.738 30.6216H157.843C158.656 31.004 159.286 31.1952 159.735 31.1952C160.183 31.1525 160.407 30.8553 160.407 30.3033L160.092 28.498L160.722 28.0518H160.617L160.092 28.2857L159.945 28.1582V26.8206C159.581 26.8206 159.321 25.695 159.167 23.4439L159.062 23.3379V23.2315H157.948L156.729 23.1255L156.393 23.2315L154.817 22.8707C154.817 23.0546 154.523 23.1749 153.935 23.2315C153.5 25.7375 153.094 27.5709 152.716 28.7318L152.61 30.4092C152.75 30.8622 153.045 31.0887 153.493 31.0887C153.843 31.0887 154.215 30.933 154.607 30.6216V30.8764C154.299 31.5702 153.563 32.2428 152.4 32.894H151.938C151.321 32.894 150.691 32.5612 150.047 31.8957H149.942C149.283 32.4903 148.688 32.7876 148.155 32.7876H147.693C145.914 32.3346 145.024 31.6126 145.024 30.6216C145.515 30.933 145.998 31.0887 146.474 31.0887C147.301 31.0887 147.896 30.4163 148.26 29.0716H148.365L148.26 28.9441V28.604L149.269 25.8223L149.143 25.7163V25.4615L149.584 23.5503L149.479 23.4439L150.467 19.8553L150.362 19.7279V19.6214C150.488 19.4659 150.607 18.9421 150.719 18.05C150.523 17.498 150.075 16.8184 149.374 16.0113C149.5 15.6716 150.054 15.1054 151.034 14.3129L151.833 13.1872C151.833 12.5217 152.197 12.0332 152.926 11.7218V11.6158L152.61 11.5094C152.554 11.8917 152.435 12.083 152.253 12.083H152.148V11.8281C153.115 8.21819 153.598 6.00968 153.598 5.20258L153.829 4.31069C153.829 3.24876 153.423 2.71778 152.61 2.71778L151.602 3.16391V3.05755C152.484 1.57119 153.304 0.828003 154.061 0.828003C154.061 0.658117 154.243 0.573177 154.607 0.573177V0.70059L154.712 0.573177H154.964V0.828003H155.174V0.573177C156.113 0.573177 157.073 1.06168 158.053 2.03867C158.992 0.849177 159.812 0.254408 160.512 0.254408ZM155.7 1.35871L155.384 1.46507V1.61354H155.489L155.847 1.46507V1.35871H155.7ZM154.502 2.61179V2.71778H154.607L155.069 2.27202H154.964C154.656 2.39958 154.502 2.51283 154.502 2.61179ZM159.629 7.68738H159.398V7.89931C159.734 7.80036 160.176 7.46771 160.722 6.90142H160.617C160.309 6.98637 159.98 7.24836 159.629 7.68738ZM159.062 8.00567L158.621 8.47286H158.726L159.167 8.23908V8.00567H159.062ZM157.171 9.38622H157.276C157.612 9.23035 157.801 9.07449 157.843 8.91862V8.81268C157.395 9.03919 157.171 9.23035 157.171 9.38622ZM157.066 9.13139H156.961L156.729 9.59816H156.961L157.066 9.23739V9.13139ZM158.726 9.59816L158.158 9.49221L158.516 9.81051L159.167 9.70457V9.91693H159.525C159.525 9.70443 159.335 9.59816 158.957 9.59816V9.49221L158.831 9.59816H158.726ZM156.162 9.70457L154.502 10.7239V10.9362L156.393 9.81051V9.70457H156.162ZM157.066 9.70457H156.961C156.793 11.0494 156.526 11.7218 156.162 11.7218L156.267 11.8281L155.952 13.527L156.057 13.8668C155.678 14.7586 155.23 16.3724 154.712 18.7085L154.607 18.8359C154.845 18.8359 154.964 18.9492 154.964 19.1757L155.069 19.2817H155.174L155.594 19.1757L157.843 19.3881C157.843 19.2465 158.067 19.1757 158.516 19.1757L157.843 14.2066L157.948 13.8668C157.36 11.998 157.066 10.6106 157.066 9.70457ZM160.197 10.0233L159.735 9.91693L160.092 10.2777L160.197 10.1718V10.0233ZM160.617 10.3841H160.512L160.827 10.7239V10.5965L160.617 10.3841ZM161.185 10.8298H161.079V10.9362L161.521 11.0636C161.521 10.9078 161.409 10.8298 161.185 10.8298ZM153.935 11.1696L153.493 11.276V11.6158L153.935 11.276V11.1696ZM151.707 24.803H151.371V25.0368L151.707 24.9094V24.803ZM150.929 24.9094L150.593 25.0368V25.1427H150.719L151.139 25.0368V24.9094H150.929ZM150.257 25.1427H149.942L149.836 25.2492V25.3551H149.942L150.257 25.2492V25.1427ZM162.971 26.5018L162.635 26.6082V26.8206L162.971 26.7142V26.5018ZM162.299 27.3937H162.403L163.181 27.1604V26.9265C162.593 27.0541 162.299 27.2098 162.299 27.3937ZM161.521 27.3937L161.29 27.6061V27.7125H161.521V27.3937ZM161.079 27.7125H160.974L160.827 28.0518H161.079V27.7125ZM161.626 28.7318H161.521L161.857 29.0716V28.9441L161.626 28.7318ZM162.299 29.1775H161.857V29.305L162.299 29.5173V29.1775ZM162.635 29.6237H162.508L162.866 30.1969H163.076V29.8361L162.635 29.6237ZM165.43 31.6623L164.526 30.9828V31.0887C164.722 31.4711 165.023 31.6623 165.43 31.6623ZM179.11 0.33935L180.161 0.127466C181.786 0.367995 182.599 0.650945 182.599 0.976417L182.914 0.870474C184.063 1.40845 184.876 2.22959 185.352 3.33385L186.003 4.28963C186.213 4.28963 186.319 4.40276 186.319 4.62898C187.509 6.51203 188.105 8.47289 188.105 10.5115C188.371 11.276 188.588 12.4581 188.756 14.0577L190.122 15.5656C189.057 17.038 188.525 17.9227 188.525 18.2199H188.42L188.315 18.1139V19.5155L188.42 19.9402C187.761 24.1448 187.194 26.247 186.718 26.247L186.823 26.3534V26.6717C186.627 27.7476 185.709 29.2483 184.07 31.1737C183.467 31.8532 181.989 32.4267 179.636 32.894L179.3 32.7662L178.039 32.894C177.534 32.894 176.266 32.3913 174.235 31.386H174.13C174.13 31.5702 173.597 31.7543 172.533 31.9382C170.585 31.9382 169.1 30.9685 168.077 29.0291H168.182C169.135 29.8219 169.948 30.2183 170.62 30.2183H170.725C171.426 30.2183 171.776 29.3901 171.776 27.7335L171.881 27.0115L171.776 26.0557L171.881 25.9497V25.8437L171.587 24.5481L171.881 22.6159L171.776 21.9574V21.2353L171.881 20.7896L171.692 19.5155L171.776 19.0693L171.692 18.9633V18.857L171.776 18.751V18.666L171.692 18.1139L171.881 17.5832C171.167 16.8468 170.606 16.1743 170.2 15.5656V15.4382C171.321 14.3199 171.881 13.4988 171.881 12.9748H171.692V12.8474L171.881 12.5501L171.692 11.9131L172.533 11.1696V11.0636H172.427L171.986 11.3609H171.776L171.692 10.8298V10.7239L171.776 10.2992L171.692 9.9594H171.776L171.692 9.6621L171.776 8.17556L171.692 7.51707L171.881 6.11594L171.692 5.35099L171.881 4.7354L171.776 4.18327L171.881 4.07686V3.97092C171.713 3.12149 171.398 2.69673 170.936 2.69673H170.095C169.787 2.69673 169.359 2.98704 168.813 3.56763H168.729V3.46126C169.793 1.73409 170.746 0.870474 171.587 0.870474C172.68 0.870474 173.562 1.16078 174.235 1.74137C174.683 1.30235 175.138 1.04735 175.601 0.976417L175.937 1.08283V0.976417C175.937 0.792516 176.322 0.65812 177.093 0.573177C177.359 0.346662 177.639 0.233408 177.933 0.233408H178.039L178.249 0.445763L178.9 0.233408L179.005 0.33935H179.11ZM171.482 1.84731H171.146V2.05967H171.272L171.482 1.84731ZM171.146 2.16566H170.725V2.27202H171.146V2.16566ZM178.459 3.56763L177.513 3.77998L177.639 5.0537L177.408 5.28752L177.513 5.35099V6.56166L177.639 7.30514H177.513L177.639 7.41108V7.51707C177.639 7.82853 177.457 8.18258 177.093 8.57927H177.408V8.89762L177.303 9.00356L177.408 9.13139V11.5733L177.303 12.0191L177.513 12.9748L177.408 13.3996L179.3 15.5656V15.672C179.285 15.8133 178.97 16.1318 178.354 16.6274C178.354 16.9812 178.003 17.4059 177.303 17.9015C177.527 17.9015 177.639 17.9723 177.639 18.1139L177.513 19.1757L177.639 20.1736L177.408 20.5773L177.513 21.2353L177.408 21.3418L177.639 21.5541L177.513 23.359L177.639 23.6777L177.513 24.2294L177.639 24.8454L177.408 27.0115L177.513 27.1179V27.2238L177.408 27.5426L177.513 28.0518L177.408 28.1582L177.639 28.392L177.513 28.9227C177.513 29.2059 177.723 29.3829 178.144 29.4538L178.249 29.3474H178.354L178.795 29.4538C180.266 29.2979 181.002 29.0147 181.002 28.604C181.38 28.604 181.765 27.5705 182.158 25.5036H182.262L182.158 24.4422L182.262 23.89L182.158 23.359C182.214 22.4529 182.326 21.9149 182.494 21.745V21.6601C182.27 21.6601 182.158 21.5893 182.158 21.4477L182.262 18.5597C182.262 17.8661 182.059 17.3283 181.653 16.9462L181.758 16.8398V16.6274C181.464 16.6274 181.317 16.4434 181.317 16.0753L181.212 16.1812H181.107L180.56 15.672V15.5656C181.247 14.8718 181.856 14.079 182.389 13.1872H182.494C182.27 12.3095 182.158 11.4884 182.158 10.7239H182.262L182.158 10.6175V6.96495C182.158 5.46429 181.737 4.50158 180.897 4.07686C180.532 3.89296 179.902 3.75856 179.005 3.67362L178.564 3.77998L178.459 3.67362V3.56763ZM184.301 4.41705L183.965 4.52304V4.7354L184.406 4.52304V4.41705H184.301ZM183.355 5.0537L183.019 5.16011V5.28752H183.25L183.545 5.16011V5.0537H183.355ZM177.093 8.68526H176.988V9.13139H177.093V8.68526ZM174.655 9.9594V10.0868H174.739C174.977 9.8746 175.195 9.76846 175.391 9.76846V9.55569C174.9 9.68324 174.655 9.81783 174.655 9.9594ZM176.756 20.8956H176.441L176.337 21.4477H176.546V21.2353C176.771 21.2353 176.883 21.1576 176.883 21.002L176.756 20.8956ZM173.373 21.6601L172.848 21.3418V21.4477C172.876 21.5893 173.051 21.7239 173.373 21.8514V21.6601ZM173.794 21.9574L174.004 22.2971L173.688 22.4035V22.5095H173.794L174.445 22.2971C174.445 22.1415 174.228 22.0283 173.794 21.9574ZM173.478 22.0638H173.184V22.1912L173.478 22.2971V22.0638ZM174.844 22.4035H174.739V22.5095H174.949V22.6159L174.844 22.7219V22.8282H175.181V22.6159L175.601 22.7219H175.811V22.6159L174.844 22.4035ZM175.496 23.168V23.253H175.601L175.706 22.8282C175.566 22.8282 175.496 22.9415 175.496 23.168ZM177.408 23.359L176.988 23.253V23.4653H177.408V23.359ZM174.739 23.4653L174.55 23.6777H174.739L174.949 23.4653H174.739ZM174.34 23.7837L174.004 23.89V24.0174H174.13L174.445 23.89V23.7837H174.34ZM174.004 24.3358L173.794 24.5481V24.6546L174.004 24.4422V24.3358ZM183.965 25.1852L183.545 25.0793L183.86 25.3976H183.965V25.1852ZM184.616 25.5036H184.406V25.6099L184.932 25.7163C184.932 25.5745 184.826 25.5036 184.616 25.5036ZM186.613 26.247L186.213 26.162V26.3534H186.613V26.247ZM177.303 31.9382H177.198L176.988 32.3415H177.198L177.303 32.0442V31.9382ZM200.104 0.0845233H200.419C201.526 0.0845233 202.738 0.573024 204.055 1.55001L205.505 3.33385L205.821 3.22786V3.33385C206.633 4.56538 207.221 5.82533 207.585 7.11378C207.824 7.31198 208.062 8.01283 208.3 9.21634L208.216 9.53469C208.412 9.53469 208.58 10.1293 208.72 11.3185H208.405C208.685 11.7715 208.826 12.1183 208.826 12.3588L208.72 12.9959C208.846 12.9959 209.022 13.3073 209.246 13.9303L209.141 13.8243H209.036V13.9303C209.526 14.0012 209.771 14.2135 209.771 14.5673C210.107 14.7232 210.451 15.0418 210.801 15.5232L209.246 17.307L208.93 17.8166L209.036 18.1354L208.93 18.4537L209.036 18.9844L208.111 24.0174L208.216 24.4422C207.88 25.6311 207.46 26.5017 206.955 27.0539C206.955 28.3424 205.953 29.7368 203.95 31.2372C202.745 32.2425 201.877 32.7734 201.344 32.8301L200.525 32.6177L199.999 32.7241C198.29 32.7241 196.595 31.7048 194.914 29.6661L193.464 27.2663C193.464 26.6434 193.254 26.0488 192.833 25.4825L192.938 25.1642L192.644 24.8454L192.833 24.5481V24.4422C192.357 24.4422 192.049 23.1114 191.908 20.4499C191.796 20.4499 191.726 20.202 191.698 19.7064V19.0907L191.803 18.666L191.698 18.2413V18.1354L191.803 17.6042L190.038 15.714V15.5232C191.145 14.2916 191.698 13.5554 191.698 13.3146C191.698 12.0122 192.042 10.1221 192.728 7.64449C193.148 7.00756 193.464 6.2007 193.674 5.224C194.612 3.56747 195.474 2.62595 196.258 2.39943L196.153 2.29349V2.18708C196.84 1.13945 197.639 0.615648 198.549 0.615648C198.717 0.261575 199.236 0.0845233 200.104 0.0845233ZM199.579 3.0155H199.495V3.12144L199.999 3.22786H200.104V3.12144L199.579 3.0155ZM201.155 3.43979L200.419 3.22786V3.43979L200.945 3.54621H201.155V3.43979ZM198.129 5.11764H198.024L198.129 5.64876V5.7547L197.918 5.96706L198.024 6.79506L197.918 11.5308L197.834 12.2528L197.918 12.3588V12.4652L197.834 12.5716V12.6775L197.918 12.7835V12.8899L197.834 12.9959V13.1023C197.933 13.5553 198.514 14.3268 199.579 15.4168V15.5232C198.472 16.769 197.918 17.5688 197.918 17.9226L197.834 19.9187L197.918 20.3435L197.73 20.5558L197.918 20.7682V21.1719L197.834 21.2778L197.918 21.3842V21.4902L197.834 22.0213L197.918 22.3396L197.834 22.7644L197.918 25.3766V25.4825C197.918 25.6241 197.785 25.6949 197.519 25.6949V25.9072C197.856 25.9072 198.024 26.2187 198.024 26.8416C198.374 28.3139 199.068 29.0501 200.104 29.0501H200.63C201.708 29.0501 202.507 28.1086 203.025 26.2256C202.983 25.8718 202.878 25.6949 202.71 25.6949L202.92 25.0578L202.71 24.3358L202.815 23.9111L202.71 21.5966L202.815 21.4902H202.92L202.71 20.9805L202.815 20.0252L202.71 19.1757L202.815 18.029C202.815 17.7175 202.227 16.8823 201.05 15.5232C202.227 14.1924 202.815 13.3854 202.815 13.1023L202.71 12.9959V12.8899L203.025 12.4652C202.815 12.2104 202.71 11.9697 202.71 11.7432L202.815 10.1503L202.71 8.89762L202.815 8.57927L202.71 7.9632V7.00742L202.815 6.58313C202.745 6.03085 202.43 5.16012 201.87 3.97092H201.764L201.659 4.07686C201.351 3.93557 200.903 3.86492 200.315 3.86492H200.209C199.285 3.86492 198.591 4.28251 198.129 5.11764ZM208.111 10.9997L207.691 11.1061V11.2125H207.901L208.3 11.1061V10.9997H208.111ZM206.451 11.1061L206.03 11.2125V11.4244H206.136L206.535 11.1061H206.451ZM207.585 11.2125H207.166V11.3185H207.585V11.2125ZM206.03 11.5308L205.505 11.7432V11.8496H205.821C205.821 11.7077 205.926 11.6368 206.136 11.6368V11.5308H206.03ZM205.085 11.8496H204.875V11.9345L204.98 12.0405V12.1465L204.875 12.2528V12.4652H204.98C204.98 12.2527 205.085 12.1465 205.295 12.1465L205.61 12.2528L205.085 11.8496ZM204.37 12.1465L204.16 12.3588H204.265L204.476 12.1465H204.37ZM208.111 13.3146H208.006V13.4206L208.405 13.527H208.51V13.4206L208.111 13.3146ZM197.519 14.4614H197.099V14.6737L197.519 14.5673V14.4614ZM196.679 14.6737L196.469 14.8861H196.574L196.784 14.6737H196.679ZM195.649 14.992L195.019 15.2044V15.3108H195.124L195.649 15.2044V14.992ZM193.569 15.8205H193.674L194.304 15.6081V15.5232H194.199C193.779 15.5798 193.569 15.6789 193.569 15.8205ZM194.094 24.7395H193.779L193.989 24.9519H194.094V24.7395ZM196.679 25.3766L196.153 25.2702C196.153 25.4117 196.258 25.4825 196.469 25.4825H196.679V25.3766ZM197.414 25.6949L196.994 25.5885C196.994 25.7304 197.099 25.8013 197.309 25.8013H197.414V25.6949ZM203.215 27.5846H203.109L203.53 27.8824H203.74V27.776L203.215 27.5846ZM204.16 27.8824H203.845V28.0947H203.95L204.16 27.8824ZM205.925 28.5194H205.505V28.6254H205.925V28.5194ZM201.659 30.3033L201.26 30.4092V30.5152H201.449L201.87 30.4092V30.3033H201.659ZM219.165 0.105994L221.035 0C221.918 0 223.039 0.424755 224.398 1.27419V1.59248C223.893 1.59248 223.508 1.76954 223.242 2.12361H223.347C223.725 1.84018 224.075 1.69848 224.398 1.69848L224.503 1.59248V1.48654C224.867 1.5712 225.322 1.8542 225.869 2.33554C226.485 2.33554 226.793 2.01706 226.793 1.38013H227.214L227.109 1.27419V1.16777C227.683 0.389271 228.033 0 228.159 0L228.264 0.105994V0.637119L228.054 0.849475L228.264 1.69848L228.054 3.26991L228.264 4.86281L228.159 5.28752L228.264 5.39394L228.159 6.56166L228.264 8.15414L228.054 8.34544L228.159 8.45144V8.55785L228.054 8.66421V8.77021L228.264 10.2567V10.6814C228.264 11.2051 228.159 11.4882 227.949 11.5308L227.844 11.4244H227.739L227.319 11.5308L227.214 11.4244L226.688 11.5308H224.608C224.397 11.4599 224.292 11.2475 224.292 10.8938V9.40727L224.398 8.87615L224.187 8.66421V8.45144L224.608 7.9422H224.398V6.3493L224.292 6.24289V6.13694C224.446 6.13694 224.552 5.95989 224.608 5.60582L224.292 5.81818H224.187C224.187 5.45009 223.907 4.9546 223.347 4.33169V4.22574L223.452 4.11975V4.01339H223.347L223.242 4.11975H223.137C222.408 3.90725 221.673 3.80103 220.93 3.80103C219.319 3.80103 218.345 4.89814 218.009 7.09236C218.009 9.25855 219.193 11.0919 221.561 12.5926L222.611 12.4867H223.662C223.872 12.4867 223.977 12.8759 223.977 13.6544H223.872L224.503 15.1195C227.151 17.5545 228.474 19.2817 228.474 20.301C228.615 20.301 228.755 20.6549 228.895 21.3628L228.789 21.7875V22.1062L229 22.4246L228.895 23.0617L229 23.5923L228.789 24.1234L228.895 24.2294H229C228.888 25.702 228.643 26.4383 228.264 26.4383L228.37 26.8626C227.347 29.3969 226.303 30.8764 225.238 31.3011C224.846 31.9383 223.83 32.4338 222.191 32.7876C221.925 32.9292 221.539 33 221.035 33H220.09C219.263 33 217.904 32.4337 216.013 31.3011L214.542 29.7086C214.387 29.4112 214.009 29.0573 213.407 28.6468C212.776 27.2451 212.461 26.3674 212.461 26.0136L212.566 25.5885L212.461 25.1642L212.566 24.5481L212.461 24.4422V24.3358L212.566 23.9111L212.461 23.5923C212.573 23.5923 212.678 23.3447 212.776 22.8493C212.566 21.8583 212.321 21.3628 212.041 21.3628H211.726C211.473 21.3628 211.193 21.5043 210.885 21.7875H210.78V21.5751C211.144 20.3719 211.739 19.7703 212.566 19.7703L214.121 20.195V20.0886C214.738 19.5933 215.193 19.3456 215.487 19.3456H216.223C216.839 19.3456 217.329 19.9827 217.693 21.2568V21.5751H217.484C217.484 21.292 217.274 21.115 216.853 21.044L216.538 21.1504L216.643 21.2568V22.1062L216.433 22.4246V22.531L216.643 22.8493V23.274L216.433 24.0174L216.538 24.1234H216.643L216.538 24.6546L216.643 25.3766C216.503 25.3766 216.433 25.4827 216.433 25.6949C216.601 26.4734 217.196 27.3511 218.219 28.3281C219.046 28.8944 219.669 29.1775 220.09 29.1775H221.351C221.673 29.1775 222.198 28.7528 222.926 27.9034L223.557 28.1158H223.662V28.0098L223.031 27.9034V27.6911C223.396 26.9266 223.641 25.8081 223.767 24.3358C223.557 23.4154 223.067 22.4244 222.296 21.3628C221.47 20.3718 220.909 19.8763 220.615 19.8763L218.85 19.7703L217.799 19.8763L217.693 19.7703V19.6639L217.799 19.558V19.4516L217.589 18.6236V17.8801C217.126 16.9741 216.496 16.3017 215.697 15.8629C214.969 14.9426 214.345 14.3055 213.827 13.9517L212.881 12.0615L212.986 11.7432L212.671 10.8938L212.776 10.7873L212.356 8.98256V8.77021L212.881 5.81818L212.986 5.71223L212.881 5.60582V5.49988C213.358 3.84363 214.541 2.39959 216.433 1.16777L219.165 0.105994ZM221.981 2.54832H221.666V2.7392L221.981 2.65426V2.54832ZM220.51 2.84562H220.194V3.05755L220.51 2.95156V2.84562ZM219.585 3.16391L219.165 3.26991V3.37632H219.375L219.69 3.26991V3.16391H219.585ZM215.592 4.96875H215.697L216.328 4.75682V4.65046H216.223C215.803 4.72138 215.592 4.82747 215.592 4.96875ZM216.223 5.18111H215.907L215.803 5.28752V5.39394H215.907L216.223 5.28752V5.18111ZM214.962 5.92459H214.646L214.542 6.031V6.13694H214.646L214.962 6.031V5.92459ZM227.949 5.92459L227.739 6.13694H227.844L228.054 5.92459H227.949ZM226.583 6.66807L225.764 7.09236V7.30514L226.583 6.88001V6.66807ZM213.407 7.09236H212.986V7.19872H213.407V7.09236ZM225.238 7.51707L224.712 7.72943V7.83579H224.923L225.343 7.51707H225.238ZM217.904 11.2125L217.589 11.3185V11.4244H217.799L218.114 11.3185V11.2125H217.904ZM217.484 11.5308H217.168V11.7432L217.484 11.6368V11.5308ZM216.643 11.8496L216.433 12.0615H216.538L216.748 11.8496H216.643ZM216.118 12.0615L215.803 12.3803H215.907L216.118 12.1679V12.0615ZM214.857 12.6986L214.646 12.911H214.752L214.962 12.6986H214.857ZM214.436 24.6546H213.911V24.7395H214.436V24.6546ZM215.382 25.2702V25.4825L216.118 25.6949C216.118 25.5816 215.872 25.44 215.382 25.2702ZM224.083 28.1158H223.977V28.2217L224.398 28.3281H224.608V28.2217L224.083 28.1158ZM225.448 28.5405H225.028V28.6468L225.764 28.7528C225.764 28.6113 225.659 28.5405 225.448 28.5405ZM226.373 28.8588L225.973 28.7528V28.9652H226.373V28.8588Z" fill="#F2994A"/>
</svg>
